<?xml version="1.0" encoding="UTF-8" standalone="no"?>
<svg
   height="889.33331"
   viewBox="0 0 499.99995 889.33335"
   width="500"
   version="1.1"
   id="svg55"
   sodipodi:docname="fingerprint_launchscreen.svg"
   inkscape:version="1.1.2 (b8e25be8, 2022-02-05)"
   inkscape:export-filename="/Users/petrpalata/code/generate-icons/fingerprint.png"
   inkscape:export-xdpi="120"
   inkscape:export-ydpi="120"
   xmlns:inkscape="http://www.inkscape.org/namespaces/inkscape"
   xmlns:sodipodi="http://sodipodi.sourceforge.net/DTD/sodipodi-0.dtd"
   xmlns="http://www.w3.org/2000/svg"
   xmlns:svg="http://www.w3.org/2000/svg">
  <defs
     id="defs59" />
  <sodipodi:namedview
     id="namedview57"
     pagecolor="#ffffff"
     bordercolor="#666666"
     borderopacity="1.0"
     inkscape:pageshadow="2"
     inkscape:pageopacity="1"
     inkscape:pagecheckerboard="0"
     showgrid="false"
     inkscape:zoom="0.1383202"
     inkscape:cx="-234.96207"
     inkscape:cy="1460.3796"
     inkscape:window-width="1312"
     inkscape:window-height="842"
     inkscape:window-x="0"
     inkscape:window-y="38"
     inkscape:window-maximized="0"
     inkscape:current-layer="svg55"
     units="px"
     width="400mm" />
  <g
     id="g8857"
     transform="matrix(0.27839225,0,0,0.27839225,39.561764,270.59419)">
    <g
       id="g8802"
       transform="matrix(4.4946599,0,0,4.4946599,246.74455,173.98241)">
      <path
         d="m 0,-8.41008 h 24 v 24 H 0 Z"
         fill="none"
         id="path51" />
      <path
         d="m -11.671991,-4.0637479 c -0.140772,0 -0.281544,-0.035193 -0.404719,-0.1055789 -3.378526,-1.7420522 -6.299543,-2.4811052 -9.801244,-2.4811052 -3.484105,0 -6.792244,0.827035 -9.801244,2.4811052 -0.422315,0.2287543 -0.95021,0.070386 -1.196561,-0.3519298 -0.228754,-0.4223157 -0.07039,-0.9678064 0.35193,-1.1965614 3.272947,-1.777245 6.86263,-2.692262 10.645875,-2.692262 3.748052,0 7.020999,0.827035 10.610682,2.674666 0.439912,0.228754 0.598281,0.7566487 0.369526,1.1789644 -0.158368,0.3167368 -0.457508,0.4927017 -0.774245,0.4927017 z m -25.180574,9.238156 c -0.175965,0 -0.35193,-0.05279 -0.510298,-0.1583684 -0.404719,-0.2815438 -0.492702,-0.8270349 -0.211158,-1.2317541 1.742052,-2.4635084 3.95921,-4.39912193 6.598683,-5.7540515 5.525297,-2.850631 12.599085,-2.8682275 18.141979,-0.017596 2.639473,1.3549296 4.85663,3.2729467 6.598683,5.7188585 0.281543,0.3871227 0.193561,0.9502103 -0.211158,1.2317542 -0.40472,0.2815438 -0.950211,0.1935613 -1.231754,-0.2111579 -1.583684,-2.2171579 -3.589684,-3.95921026 -5.96521,-5.17336793 -5.050192,-2.58668357 -11.508103,-2.58668357 -16.540698,0.0175965 -2.393123,1.23175417 -4.399122,2.99140293 -5.982806,5.20856043 -0.140772,0.2463508 -0.404719,0.3695262 -0.686263,0.3695262 z M -25.85476,26.413369 c -0.228755,0 -0.457509,-0.08798 -0.615877,-0.263948 -1.530895,-1.530894 -2.35793,-2.516297 -3.536894,-4.645472 -1.214158,-2.164368 -1.847632,-4.803841 -1.847632,-7.636876 0,-5.2261568 4.469508,-9.4845068 9.959612,-9.4845068 5.490105,0 9.959612,4.25835 9.959612,9.4845068 0,0.492702 -0.387122,0.879824 -0.879824,0.879824 -0.492702,0 -0.879824,-0.387122 -0.879824,-0.879824 0,-4.25835 -3.677666,-7.724858 -8.199964,-7.724858 -4.522297,0 -8.199963,3.466508 -8.199963,7.724858 0,2.533894 0.563088,4.874227 1.636474,6.774648 1.126175,2.023596 1.90042,2.885824 3.25535,4.25835 0.334333,0.35193 0.334333,0.897421 0,1.24935 -0.193562,0.175965 -0.422316,0.263948 -0.65107,0.263948 z m 12.616681,-3.25535 c -2.093982,0 -3.941613,-0.527895 -5.454911,-1.566088 -2.621876,-1.777245 -4.187964,-4.663069 -4.187964,-7.724858 0,-0.492702 0.387123,-0.879824 0.879825,-0.879824 0.492701,0 0.879824,0.387122 0.879824,0.879824 0,2.481105 1.266947,4.821438 3.413719,6.26435 1.24935,0.844631 2.709859,1.24935 4.469507,1.24935 0.422316,0 1.126176,-0.05279 1.830035,-0.175965 0.475105,-0.08798 0.932614,0.228755 1.020596,0.721456 0.08798,0.475106 -0.228754,0.932614 -0.721456,1.020597 -1.002999,0.193561 -1.882824,0.211158 -2.129175,0.211158 z m -3.536894,3.624876 c -0.07039,0 -0.158368,-0.0176 -0.228754,-0.03519 -2.797841,-0.774245 -4.627876,-1.812438 -6.545893,-3.695262 -2.463509,-2.445912 -3.818438,-5.701262 -3.818438,-9.185367 0,-2.850631 2.428315,-5.173367 5.419718,-5.173367 2.991403,0 5.419718,2.322736 5.419718,5.173367 0,1.882824 1.636474,3.413719 3.66007,3.413719 2.023596,0 3.660069,-1.530895 3.660069,-3.413719 0,-6.6338758 -5.718858,-12.018401 -12.757453,-12.018401 -4.997403,0 -9.57249,2.780245 -11.631279,7.091384 -0.686263,1.425313 -1.038193,3.096979 -1.038193,4.927014 0,1.372526 0.123176,3.536894 1.178965,6.352332 0.175965,0.457509 -0.05279,0.967807 -0.510298,1.126175 -0.457509,0.175965 -0.967807,-0.07039 -1.126175,-0.510298 -0.862228,-2.30514 -1.284544,-4.592683 -1.284544,-6.968209 0,-2.111579 0.404719,-4.029596 1.196561,-5.701262 2.340333,-4.90942 7.531297,-8.09438436 13.214963,-8.09438436 8.006401,0 14.517102,6.17636726 14.517102,13.77805036 0,2.850631 -2.428315,5.173367 -5.419718,5.173367 -2.991403,0 -5.419719,-2.322736 -5.419719,-5.173367 0,-1.882825 -1.636473,-3.413719 -3.660069,-3.413719 -2.023596,0 -3.660069,1.530894 -3.660069,3.413719 0,3.008999 1.161368,5.824437 3.290543,7.936015 1.671666,1.65407 3.272946,2.569088 5.754051,3.255351 0.475105,0.123175 0.739053,0.615877 0.615877,1.073385 -0.08798,0.40472 -0.457508,0.668667 -0.827035,0.668667 z"
         id="path53"
         style="fill:#df5228;fill-opacity:1;stroke:none;stroke-width:1.75965;stroke-opacity:1" />
      <text
         xml:space="preserve"
         style="font-style:normal;font-weight:normal;font-size:40px;line-height:1.25;font-family:sans-serif;fill:#000000;fill-opacity:1;stroke:none"
         x="1.7615055"
         y="21.199295"
         id="text1604"><tspan
           sodipodi:role="line"
           id="tspan1602"
           x="1.7615055"
           y="21.199295">FingerprintJS</tspan></text>
    </g>
    <text
       xml:space="preserve"
       style="font-style:normal;font-weight:normal;font-size:127.509px;line-height:1.25;font-family:sans-serif;fill:#000000;fill-opacity:1;stroke:none;stroke-width:3.18773"
       x="264.2363"
       y="656.99084"
       id="text7924"><tspan
         sodipodi:role="line"
         id="tspan7922"
         x="264.2363"
         y="656.99084"
         style="stroke-width:3.18773">iOS Playground</tspan></text>
  </g>
</svg>
